# xmcd
#
# Track frame offsets: 
#        150
#        21038
#        39936
#        59674
#        94279
#        110140
#        135828
#        153381
#        182564
#        205968
#        226698
#        256777
#        279312
#        308993
#        324585
#
# Disc length: 4712 seconds
#
# Revision: 2
# Processed by: cddbd v1.5.2PL0 Copyright (c) Steve Scherf et al.
# Submitted via: ExactAudioCopy v0.99pb5
#
DISCID=c512660f
DTITLE=Various Artist - Kontor Maximum Trance 2 [CD1)
DYEAR=2006
DGENRE=Trance
TTITLE0=Markus Schulz (and Depature with Gabriel and Dresden) - Without 
TTITLE0=You Near (Coldharbour Mix)
TTITLE1=Nile - RA
TTITLE2=Luminary - Amsterdam (Smith and Pledger Remix)
TTITLE3=Sunny Lax - Cassiopeia
TTITLE4=Filterfunk - S.O.S. (Message In A Bottle) (Sander van Doorn Ed
TTITLE4=it)
TTITLE5=Johan Gielen - Show Me What You Got (Montana's Greenwich Breez
TTITLE5=e Remix)
TTITLE6=Adam Sheridan - Lektrik
TTITLE7=Ija (aka Pulser) - You Are Here
TTITLE8=Goldenscan - Halcyon
TTITLE9=Solarscape - Alive (Ronski Speed with Stoneface and Terminal Dub
TTITLE9=Mix)
TTITLE10=David West feat. Andreas Hermansson - Larry Mountains 54
TTITLE11=3rd Moon - Diving In The Sky
TTITLE12=N2O - Waterfall
TTITLE13=Selu Vibra - Stargazing
TTITLE14=DJ Precision and Terry Bones - Another Situation
EXTD=
EXTT0=
EXTT1=
EXTT2=
EXTT3=
EXTT4=
EXTT5=
EXTT6=
EXTT7=
EXTT8=
EXTT9=
EXTT10=
EXTT11=
EXTT12=
EXTT13=
EXTT14=
PLAYORDER=
